<svg width="246" height="50" viewBox="0 0 246 50" fill="none" xmlns="http://www.w3.org/2000/svg">
<path d="M96.8865 8.28921H102.824L108.901 32.9913L115.727 8.28921H121.664L128.256 32.9913L134.52 8.28921H140.457L131.248 40.7392H125.31L118.578 15.8092L111.706 40.7392H105.675L96.8865 8.28921Z" fill="#10135A"/>
<path d="M159.921 7.51442C164.627 7.51442 168.445 9.09438 171.375 12.2543C174.336 15.3838 175.816 19.4705 175.816 24.5142C175.816 29.5579 174.336 33.6597 171.375 36.8196C168.414 39.9492 164.565 41.5139 159.827 41.5139C155.059 41.5139 151.194 39.9492 148.234 36.8196C145.304 33.6901 143.839 29.5883 143.839 24.5142C143.839 19.592 145.273 15.5358 148.14 12.3455C151.039 9.12476 154.965 7.51442 159.921 7.51442ZM159.827 12.2999C156.773 12.2999 154.327 13.4089 152.488 15.6269C150.649 17.8145 149.73 20.7466 149.73 24.423C149.73 28.1906 150.633 31.1834 152.441 33.4015C154.28 35.6195 156.773 36.7285 159.921 36.7285C162.944 36.7285 165.36 35.6195 167.167 33.4015C169.006 31.1531 169.925 28.1754 169.925 24.4686C169.925 20.7618 169.006 17.8145 167.167 15.6269C165.36 13.4089 162.913 12.2999 159.827 12.2999Z" fill="#10135A"/>
<path d="M182.443 8.28921H198.198C201.502 8.28921 204.198 9.01842 206.286 10.4768C208.374 11.9049 209.418 14.1837 209.418 17.3132C209.418 19.2578 208.935 20.9289 207.969 22.3265C207.003 23.6938 205.647 24.6813 203.902 25.289C204.712 25.4713 205.413 25.7447 206.005 26.1093C206.598 26.4739 207.049 26.8689 207.361 27.2943C207.704 27.7197 207.984 28.2666 208.203 28.935C208.421 29.6035 208.561 30.196 208.623 30.7125C208.717 31.1986 208.795 31.8519 208.857 32.6722C208.888 32.8849 208.919 33.2951 208.951 33.9028C209.013 34.5105 209.044 34.9206 209.044 35.1333C209.075 35.3156 209.106 35.6499 209.138 36.136C209.2 36.6221 209.247 36.9716 209.278 37.1842C209.309 37.3665 209.356 37.6552 209.418 38.0502C209.512 38.4148 209.59 38.7034 209.652 38.9161C209.714 39.0984 209.792 39.3263 209.886 39.5998C209.979 39.8428 210.088 40.0555 210.213 40.2378C210.338 40.4201 210.478 40.5872 210.634 40.7392H204.369C204.276 40.6176 204.182 40.4809 204.089 40.329C204.026 40.1467 203.964 39.9644 203.902 39.7821C203.839 39.5694 203.793 39.3871 203.761 39.2352C203.73 39.0529 203.683 38.825 203.621 38.5515C203.59 38.2477 203.559 38.0046 203.528 37.8223C203.528 37.64 203.512 37.3665 203.481 37.0019C203.45 36.6373 203.419 36.3639 203.387 36.1816C203.387 35.9993 203.372 35.6802 203.341 35.2245C203.309 34.7687 203.294 34.4497 203.294 34.2674C203.138 31.624 202.561 29.8162 201.564 28.8439C200.598 27.8412 198.744 27.3399 196.001 27.3399H188.24V40.7392H182.443V8.28921ZM188.24 12.9379V23.1013H195.954C197.076 23.1013 198.027 23.0406 198.806 22.919C199.585 22.7975 200.364 22.5848 201.143 22.281C201.954 21.9467 202.561 21.415 202.967 20.6858C203.403 19.9566 203.621 19.0299 203.621 17.9057C203.621 16.8726 203.434 16.0219 203.06 15.3535C202.686 14.6546 202.141 14.1381 201.424 13.8039C200.738 13.4697 200.021 13.2418 199.273 13.1202C198.557 12.9987 197.7 12.9379 196.702 12.9379H188.24Z" fill="#10135A"/>
<path d="M216.809 8.28921H229.479C231.785 8.28921 233.811 8.53228 235.556 9.01842C237.301 9.47418 238.906 10.3401 240.371 11.6162C243.644 14.4723 245.28 18.5893 245.28 23.9673C245.28 29.7098 243.722 34.1003 240.605 37.1387C239.234 38.4756 237.738 39.4175 236.117 39.9644C234.528 40.4809 232.424 40.7392 229.806 40.7392H216.809V8.28921ZM222.606 13.1202V35.9537H229.479C233.125 35.9537 235.696 34.9206 237.192 32.8545C238.688 30.7884 239.436 27.9172 239.436 24.2407C239.436 20.7466 238.595 18.0272 236.912 16.0827C235.229 14.1077 232.626 13.1202 229.105 13.1202H222.606Z" fill="#10135A"/>
<g clip-path="url(#clip0_0_1310)">
<mask id="mask0_0_1310" style="mask-type:alpha" maskUnits="userSpaceOnUse" x="0" y="7" width="87" height="43">
<path d="M81.9378 28.5398L79.7814 30.6962C70.1338 40.3438 57.0487 45.7638 43.4049 45.7638C29.7611 45.7638 16.6761 40.3438 7.02847 30.6962L4.87206 28.5398L7.02848 26.3834C16.6761 16.7357 29.7611 11.3157 43.4049 11.3157C57.0487 11.3157 70.1338 16.7357 79.7814 26.3834L81.9378 28.5398Z" fill="#D9D9D9" stroke="white" stroke-width="6.88961"/>
</mask>
<g mask="url(#mask0_0_1310)">
<path d="M20.6464 8.67107C25.8539 1.25903 34.3449 -3.15253 43.4034 -3.15253C52.4619 -3.15253 60.9529 1.25902 66.1604 8.67106L70.1966 14.416L66.1604 20.1609C60.9529 27.5729 52.4619 31.9845 43.4034 31.9845C34.3449 31.9845 25.8539 27.573 20.6464 20.1609L16.6102 14.416L20.6464 8.67107Z" fill="#10135A" stroke="#10135A" stroke-width="6.88961"/>
<path d="M81.9378 28.5398L79.7814 30.6962C70.1338 40.3438 57.0487 45.7638 43.4049 45.7638C29.7611 45.7638 16.6761 40.3438 7.02847 30.6962L4.87206 28.5398L7.02848 26.3834C16.6761 16.7357 29.7611 11.3157 43.4049 11.3157C57.0487 11.3157 70.1338 16.7357 79.7814 26.3834L81.9378 28.5398Z" stroke="#10135A" stroke-width="6.88961"/>
</g>
</g>
<g clip-path="url(#clip1_0_1310)">
<mask id="mask1_0_1310" style="mask-type:alpha" maskUnits="userSpaceOnUse" x="-1" y="0" width="88" height="43">
<path d="M81.937 21.6484L79.7805 23.8048C70.1329 33.4524 57.0479 38.8724 43.4041 38.8724C29.7603 38.8724 16.6753 33.4524 7.02762 23.8048L4.8712 21.6484L7.02762 19.4919C16.6753 9.84431 29.7603 4.42433 43.4041 4.42433C57.0479 4.42433 70.1329 9.84431 79.7805 19.4919L81.937 21.6484Z" fill="#D9D9D9" stroke="white" stroke-width="6.88961"/>
</mask>
<g mask="url(#mask1_0_1310)">
<path d="M81.937 21.6484L79.7805 23.8048C70.1329 33.4524 57.0479 38.8724 43.4041 38.8724C29.7603 38.8724 16.6753 33.4524 7.02762 23.8048L4.8712 21.6484L7.02762 19.4919C16.6753 9.84431 29.7603 4.42433 43.4041 4.42433C57.0479 4.42433 70.1329 9.84431 79.7805 19.4919L81.937 21.6484Z" stroke="#10135A" stroke-width="6.88961"/>
<path d="M20.6473 1.77976C25.8548 -5.63229 34.3457 -10.0438 43.4043 -10.0438C52.4628 -10.0438 60.9537 -5.63229 66.1613 1.77975L70.1975 7.52467L66.1613 13.2696C60.9537 20.6816 52.4628 25.0932 43.4043 25.0932C34.3457 25.0932 25.8548 20.6816 20.6473 13.2696L16.611 7.52467L20.6473 1.77976Z" fill="#10135A" stroke="#10135A" stroke-width="6.88961"/>
</g>
</g>
<defs>
<clipPath id="clip0_0_1310">
<rect width="43.4046" height="41.3377" fill="white" transform="translate(0 7.87096)"/>
</clipPath>
<clipPath id="clip1_0_1310">
<rect width="43.4046" height="41.3377" fill="white" transform="translate(43.4042 0.980888)"/>
</clipPath>
</defs>
</svg>
